<?xml version="1.0" standalone="no"?>
<!DOCTYPE svg PUBLIC "-//W3C//DTD SVG 1.1//EN"
"http://www.w3.org/Graphics/SVG/1.1/DTD/svg11.dtd">
<svg width="109.999mm" height="109.941mm" viewBox="-165.857 70.2855 109.999 109.941" xmlns="http://www.w3.org/2000/svg" version = "1.1">
<title>BattleArena.123dx</title>
<desc> made with 123D Design </desc>
<path d="M -122.58 173.859 L -122.418 173.901 L -119.307 174.533 L -119.143 174.564 L -115.996 174.988 L -115.83 175.008 L -112.663 175.22 L -112.495 175.229 L -109.321 175.229 L -109.153 175.226 L -105.986 175.014 L -105.819 175.001 L -102.673 174.578 L -102.507 174.553 L -99.3964 173.921 L -99.2327 173.885 L -96.1711 173.047 L -96.0101 173 L -93.0113 171.959 L -92.8538 171.901 L -89.9313 170.662 L -89.8819 170.641 L -89.793 170.602 L -86.8984 169.139 L -86.8123 169.094 L -84.0218 167.441 L -83.9389 167.391 L -81.2651 165.555 L -81.1857 165.499 L -78.6404 163.489 L -78.5649 163.428 L -76.1595 161.253 L -76.0882 161.187 L -73.8335 158.856 L -73.7667 158.785 L -71.6728 156.309 L -71.6107 156.234 L -69.6869 153.623 L -69.6299 153.544 L -67.8848 150.811 L -67.8331 150.728 L -66.2745 147.884 L -66.2283 147.799 L -64.8631 144.857 L -64.8227 144.769 L -63.6571 141.742 L -63.6226 141.651 L -62.6617 138.554 L -62.6333 138.461 L -61.8814 135.306 L -61.8592 135.212 L -61.3198 132.013 L -61.3038 131.918 L -60.9792 128.691 L -60.9696 128.594 L -60.8612 125.353 L -60.858 125.256 L -60.8612 125.159 L -60.9696 121.917 L -60.9792 121.821 L -61.3038 118.594 L -61.3198 118.498 L -61.8592 115.3 L -61.8814 115.205 L -62.6333 112.051 L -62.6617 111.958 L -63.6226 108.86 L -63.6571 108.769 L -64.8227 105.743 L -64.8631 105.655 L -66.2283 102.713 L -66.2745 102.627 L -67.8331 99.7831 L -67.8848 99.7009 L -69.6299 96.9672 L -69.6869 96.8886 L -71.6107 94.2776 L -71.6728 94.2029 L -73.7667 91.7262 L -73.8335 91.6558 L -76.0882 89.3245 L -76.1595 89.2586 L -78.5649 87.0831 L -78.6404 87.0221 L -81.1857 85.0121 L -81.2651 84.9563 L -83.9389 83.1208 L -84.0218 83.0702 L -86.8123 81.4175 L -86.8984 81.3725 L -89.793 79.9098 L -89.8819 79.8706 L -89.9313 79.8492 L -92.8538 78.61 L -93.0113 78.5527 L -96.0101 77.5114 L -96.1711 77.4649 L -99.2327 76.6262 L -99.3964 76.5905 L -102.507 75.9582 L -102.673 75.9336 L -105.819 75.5105 L -105.986 75.497 L -109.153 75.285 L -109.321 75.2828 L -112.495 75.2828 L -112.663 75.2917 L -115.83 75.5038 L -115.996 75.5239 L -119.143 75.947 L -119.307 75.9783 L -122.418 76.6106 L -122.58 76.6528 L -125.642 77.4915 L -125.801 77.5445 L -128.8 78.5858 L -128.955 78.6493 L -131.877 79.8886 L -131.889 79.8938 L -131.975 79.9362 L -134.87 81.3989 L -134.954 81.4469 L -137.744 83.0997 L -137.824 83.1531 L -140.498 84.9886 L -140.575 85.0472 L -143.12 87.0571 L -143.193 87.1206 L -145.598 89.2961 L -145.667 89.3642 L -147.921 91.6955 L -147.985 91.7679 L -150.079 94.2446 L -150.138 94.3211 L -152.062 96.9321 L -152.115 97.0122 L -153.86 99.7459 L -153.909 99.8294 L -155.467 102.674 L -155.51 102.76 L -156.875 105.702 L -156.912 105.791 L -158.078 108.818 L -158.109 108.909 L -159.07 112.006 L -159.095 112.1 L -159.847 115.255 L -159.866 115.349 L -160.405 118.547 L -160.418 118.643 L -160.742 121.87 L -160.749 121.966 L -160.857 125.207 L -160.857 125.304 L -160.749 128.545 L -160.742 128.642 L -160.418 131.869 L -160.405 131.964 L -159.866 135.162 L -159.847 135.257 L -159.095 138.412 L -159.07 138.505 L -158.109 141.603 L -158.078 141.694 L -156.912 144.72 L -156.875 144.81 L -155.51 147.751 L -155.467 147.838 L -153.909 150.682 L -153.86 150.766 L -152.115 153.499 L -152.062 153.579 L -150.138 156.19 L -150.079 156.267 L -147.985 158.744 L -147.921 158.816 L -145.667 161.147 L -145.598 161.215 L -143.193 163.391 L -143.12 163.454 L -140.575 165.464 L -140.498 165.523 L -137.824 167.358 L -137.744 167.412 L -134.954 169.065 L -134.87 169.113 L -131.975 170.575 L -131.889 170.618 L -131.877 170.623 L -128.955 171.862 L -128.8 171.926 L -125.801 172.967 L -125.642 173.02 z  " fill= "none" stroke="rgb(0,0,255)" stroke-width="0.05mm" />
</svg>
